<?xml version="1.0" encoding="UTF-8" standalone="no"?>
<!DOCTYPE svg PUBLIC "-//W3C//DTD SVG 1.1//EN" "http://www.w3.org/Graphics/SVG/1.1/DTD/svg11.dtd">
<!-- Created with Vectornator (http://vectornator.io/) -->
<svg height="100%" stroke-miterlimit="10" style="fill-rule:nonzero;clip-rule:evenodd;stroke-linecap:round;stroke-linejoin:round;" version="1.1" viewBox="0 0 170.1 113.4" width="100%" xml:space="preserve" xmlns="http://www.w3.org/2000/svg" xmlns:vectornator="http://vectornator.io" xmlns:xlink="http://www.w3.org/1999/xlink">
<defs/>
<path d="M0 0L170.1 0L170.1 113.4L0 113.4L0 0Z" fill="#ffffff" fill-rule="nonzero" opacity="1" stroke="none" vectornator:artboardBackground="true"/>
<g id="Слой-1" vectornator:layerName="Слой 1">
<g opacity="1" vectornator:layerName="Группа 1">
<path d="M32.5904 71.8504C33.6132 77.8595 35.8138 84.9935 41.4123 88.1463" fill="none" opacity="1" stroke="#000000" stroke-linecap="butt" stroke-linejoin="round" stroke-width="4" vectornator:layerName="Кривая 8"/>
<path d="M19.4214 74.5937C20.1885 81.37 24.152 88.6577 27.3484 91.7262" fill="none" opacity="1" stroke="#000000" stroke-linecap="butt" stroke-linejoin="round" stroke-width="4" vectornator:layerName="Кривая 7"/>
<path d="M45.5147 70.13C47.2466 77.2468 49.9786 79.0686 53.5585 83.16" fill="none" opacity="1" stroke="#000000" stroke-linecap="butt" stroke-linejoin="round" stroke-width="4" vectornator:layerName="Кривая 6"/>
<path d="M56.6102 33.3652C56.6102 33.3652 59.5863 14.7323 73.9491 14.2147" fill="none" opacity="1" stroke="#000000" stroke-linecap="round" stroke-linejoin="round" stroke-width="4" vectornator:layerName="Кривая 5"/>
<path d="M52.3402 34.1415C53.5047 15.7675 38.6243 8.52134 38.6243 8.52134" fill="none" opacity="1" stroke="#000000" stroke-linecap="round" stroke-linejoin="round" stroke-width="4" vectornator:layerName="Кривая 4"/>
<path d="M18.1799 94.9571C18.1799 94.9571 72.198 84.542 66.9618 69.2075C65.1503 63.9023 25.0379 76.1949 8.73411 74.9009" fill="none" opacity="1" stroke="#000000" stroke-linecap="butt" stroke-linejoin="round" stroke-width="4" vectornator:layerName="Кривая 3"/>
<path d="M115.453 60.4328C84.6276 41.3317 8.86351 34.7885 7.90529 74.4858C6.83337 118.893 96.0756 98.3214 114.401 92.6817C136.812 85.7845 153.527 104.274 157.639 100.501C161.019 97.4012 142.274 80.5964 142.208 73.0708C142.14 65.3257 167.344 44.9041 160.719 41.6152C154.095 38.3263 123.766 65.5845 115.453 60.4328Z" fill="none" opacity="1" stroke="#000000" stroke-linecap="butt" stroke-linejoin="round" stroke-width="4" vectornator:layerName="Кривая 1"/>
<path d="M52.4051 55.3975C52.4051 53.7018 53.7797 52.3272 55.4754 52.3272C57.171 52.3272 58.5457 53.7018 58.5457 55.3975C58.5457 57.0932 57.171 58.4678 55.4754 58.4678C53.7797 58.4678 52.4051 57.0932 52.4051 55.3975Z" fill="#000000" fill-rule="nonzero" opacity="1" stroke="none" vectornator:layerName="Овал 1"/>
</g>
</g>
</svg>
